<mxfile host="app.diagrams.net" agent="Mozilla/5.0 (Macintosh; Intel Mac OS X 10_15_7) AppleWebKit/537.36 (KHTML, like Gecko) Chrome/132.0.0.0 Safari/537.36" version="26.0.6">
  <diagram name="PÃ¡gina-1" id="6-uG7EoV9PY1m0dooyX8">
    <mxGraphModel dx="3387" dy="981" grid="1" gridSize="10" guides="1" tooltips="1" connect="1" arrows="1" fold="1" page="1" pageScale="1" pageWidth="827" pageHeight="1169" math="0" shadow="0">
      <root>
        <mxCell id="0" />
        <mxCell id="1" parent="0" />
        <mxCell id="MZIq6xre1szuhVHO_qsm-82" value="" style="group" vertex="1" connectable="0" parent="1">
          <mxGeometry x="-20" y="50" width="1420" height="430" as="geometry" />
        </mxCell>
        <mxCell id="MZIq6xre1szuhVHO_qsm-2" value="" style="rounded=0;whiteSpace=wrap;html=1;strokeWidth=2;strokeColor=#3399FF;" vertex="1" parent="MZIq6xre1szuhVHO_qsm-82">
          <mxGeometry x="284.51612903225816" y="50" width="283.87096774193554" height="380" as="geometry" />
        </mxCell>
        <mxCell id="MZIq6xre1szuhVHO_qsm-3" value="" style="rounded=0;whiteSpace=wrap;html=1;strokeWidth=2;strokeColor=#3399FF;" vertex="1" parent="MZIq6xre1szuhVHO_qsm-82">
          <mxGeometry y="50" width="271.6129032258065" height="380" as="geometry" />
        </mxCell>
        <mxCell id="MZIq6xre1szuhVHO_qsm-4" value="Architecture: ETL Sales Summary Report to Snowflake" style="fillColor=#4DA1F5;strokeColor=none;shadow=1;gradientColor=none;fontSize=14;align=left;spacingLeft=50;fontColor=#ffffff;html=1;" vertex="1" parent="MZIq6xre1szuhVHO_qsm-82">
          <mxGeometry width="1419.354838709678" height="40" as="geometry" />
        </mxCell>
        <mxCell id="MZIq6xre1szuhVHO_qsm-5" value="" style="rounded=0;whiteSpace=wrap;html=1;strokeWidth=2;strokeColor=#3399FF;" vertex="1" parent="MZIq6xre1szuhVHO_qsm-82">
          <mxGeometry x="581.2903225806452" y="50" width="283.87096774193554" height="380" as="geometry" />
        </mxCell>
        <mxCell id="MZIq6xre1szuhVHO_qsm-6" value="" style="rounded=0;whiteSpace=wrap;html=1;strokeWidth=2;strokeColor=#3399FF;" vertex="1" parent="MZIq6xre1szuhVHO_qsm-82">
          <mxGeometry x="1149.0322580645163" y="50.5" width="270.96774193548396" height="379" as="geometry" />
        </mxCell>
        <mxCell id="MZIq6xre1szuhVHO_qsm-10" value="&lt;font color=&quot;#0066cc&quot;&gt;App Store API&lt;/font&gt;" style="text;html=1;align=center;verticalAlign=middle;whiteSpace=wrap;rounded=0;" vertex="1" parent="MZIq6xre1szuhVHO_qsm-82">
          <mxGeometry x="12.903225806451614" y="50" width="129.03225806451616" height="30" as="geometry" />
        </mxCell>
        <mxCell id="MZIq6xre1szuhVHO_qsm-11" value="&lt;font color=&quot;#0066cc&quot;&gt;Stage&lt;/font&gt;" style="text;html=1;align=left;verticalAlign=middle;whiteSpace=wrap;rounded=0;" vertex="1" parent="MZIq6xre1szuhVHO_qsm-82">
          <mxGeometry x="593.5483870967744" y="50.5" width="145.80645161290326" height="30" as="geometry" />
        </mxCell>
        <mxCell id="MZIq6xre1szuhVHO_qsm-12" value="&lt;font color=&quot;#0066cc&quot;&gt;Extract Transform Load - EL&lt;/font&gt;" style="text;html=1;align=left;verticalAlign=middle;whiteSpace=wrap;rounded=0;" vertex="1" parent="MZIq6xre1szuhVHO_qsm-82">
          <mxGeometry x="297.41935483870975" y="50" width="158.70967741935485" height="30" as="geometry" />
        </mxCell>
        <mxCell id="MZIq6xre1szuhVHO_qsm-16" value="" style="rounded=0;whiteSpace=wrap;html=1;strokeWidth=2;strokeColor=#3399FF;" vertex="1" parent="MZIq6xre1szuhVHO_qsm-82">
          <mxGeometry x="878.0645161290324" y="50" width="258.0645161290323" height="380" as="geometry" />
        </mxCell>
        <mxCell id="MZIq6xre1szuhVHO_qsm-17" value="&lt;span style=&quot;color: rgb(0, 102, 204); text-align: center;&quot;&gt;Temp&lt;/span&gt;" style="text;html=1;align=left;verticalAlign=middle;whiteSpace=wrap;rounded=0;" vertex="1" parent="MZIq6xre1szuhVHO_qsm-82">
          <mxGeometry x="884.5161290322584" y="49" width="135.48387096774198" height="30" as="geometry" />
        </mxCell>
        <mxCell id="MZIq6xre1szuhVHO_qsm-34" value="&lt;span style=&quot;color: rgb(0, 102, 204);&quot;&gt;Production&lt;/span&gt;" style="text;html=1;align=left;verticalAlign=middle;whiteSpace=wrap;rounded=0;" vertex="1" parent="MZIq6xre1szuhVHO_qsm-82">
          <mxGeometry x="1161.9354838709683" y="50.5" width="236.12903225806457" height="30" as="geometry" />
        </mxCell>
        <mxCell id="MZIq6xre1szuhVHO_qsm-55" value="" style="group" connectable="0" vertex="1" parent="MZIq6xre1szuhVHO_qsm-82">
          <mxGeometry x="19.999677419354846" y="110" width="180.64516129032262" height="60" as="geometry" />
        </mxCell>
        <mxCell id="MZIq6xre1szuhVHO_qsm-56" value="Sales Report&#xa;API" style="strokeColor=#dddddd;shadow=1;strokeWidth=1;rounded=1;absoluteArcSize=1;arcSize=8;align=center;spacingLeft=50;spacingRight=0;spacing=0;fontColor=#808080;" vertex="1" parent="MZIq6xre1szuhVHO_qsm-55">
          <mxGeometry width="180.64516129032262" height="60" as="geometry" />
        </mxCell>
        <mxCell id="MZIq6xre1szuhVHO_qsm-54" value="" style="shape=image;verticalLabelPosition=bottom;labelBackgroundColor=default;verticalAlign=top;aspect=fixed;imageAspect=0;image=data:image/jpeg,/9j/4AAQSkZJRgABAQAAAQABAAD/2wCEAAkGBwgHBhUSBw8SFRAXFxoZGRcYFhUXFxsbHhcYGyAXFhgaHSglGRslHhUYITEjJSkuLi8vGB8zODYsNyktLjcBCgoKDQ0OGxAQFysmICYtLy03MCsrLi0tMDcrLS0tKy0tLi0tLS8tKzMwKy0tLy0tLS0tNTIwLS0rKy0vMCstLf/AABEIAOEA4QMBEQACEQEDEQH/xAAbAAEAAgMBAQAAAAAAAAAAAAAABQcBBAYCA//EAEIQAAIBAgIGBQgIBQMFAAAAAAABAgMRBAUGITFBUWESInGBkQcTFiMyVJKhFBVCUoKTsdJTYnLB0TSi8CQ1ssLi/8QAGgEBAAMBAQEAAAAAAAAAAAAAAAQFBgMBAv/EADURAAIBAgIGCAcAAwEBAQAAAAABAgMEETEFEhMhQdEUYXGRobHB8BUyUVJTgeEiI/FCQzP/2gAMAwEAAhEDEQA/ALxAABrY/H4XL6PSxc1FbuL5JbWzpSozqvVgsTjXuKVCOtUlgveRyWY6Z1pu2XQUV96WuXclqXzLajoyK31Hj2e+RnrjTs3uoxw63n3f9IHEZtmOJfrq9R8lJxXhGyJ8LejDKCKmpeXNT5qj78PBYGpKUpPrNvtZ2SSyI7bebMA8AAAAAAAAAAAAAAAAAAAAAABlSaepjAJtZGzQzLHYd+pr1F+J28HqOUqFKWcV3HeF1cQ+WpLvflkTeX6Y4yi7Y6KqR4rqy+Wp+CIVXRlOW+Dw8UWlvpytDdVWsu58vI67LM1weaU74Sd2tsXqku1f32FTWt6lF4TXI0VteUbiONN/rijdOBJAAAABE6QZ3RyfD/eqy9mP/tLgv1Jdrayry+i4sgX9/C1h9ZPJer6iu8bjcRj8Q54qTlJ+CXBLcjQ06UKcdWK3GOrVqlaevUeL95HwOhyAAAAAAAAAAAAAAAAAAAAAAAAAAAAAAAB7oV6uHrKdCTjJbGtp8yjGS1ZLFH1TnKnJSg8GiwNGtIYZpDoYi0a6XdJcY8+KKC8s3RetH5fI12jtJK5WpPdNePWvVE8QC1ABrZljaWX4KVWvsitm9vclzb1HSjSlVmoR4nG4rxoU3UlkveBVuOxlbH4uVTEO8pPuS3JckailSjTioxyRhq9adao6k837wNe50OQuALgC4AuALgC4AuALgC4AuALgC4AuALgC4AuALgC4AuALgC4AuALgHujWqUKqlRbUk7prcz5lFSWDyPqEpQkpReDRZ+Q5pDNsuU1ZSWqS4SX9ntXaZm6oOjU1eHA29jdK5pKfHJ9pIkclnD6fY9zxMKEHqiulLtepLuV3+Iu9F0cIuo+O4zWnLjGcaK4b36e+s5MtShAAAAAAAAAAAAAAAAAAAAAAAAAAAAAAAAAAAAABP6F5g8Jm6hJ9Squi/wCpa4v9V+IgaRo69LW4rfzLXQ9xs6+o8pbv3w5fssUzxrips7xDxOcVZvfOSXYn0V8kjV20NSlGPV/TDXlTaXE5db8Ny8jSudiMLgC4AuALgC4AuALgC4AuAe6VOpWqdGjGUpPYopt+CPJNRWLeB9RhKTwim31bzZxGWZhhqfSxFCpGPFxdl2vd3nOFelN4Rkse061LSvTWtODS7DTudTgLgG7TyrMqtLpU8PVcePQl8tWvuOLuKKeDmu8kRtLiS1lTlh2GpOMoTammmtqas12o7LBrFHBxaeDzPNweC4AuALgC4AuALgC4AuALgHqnWlQqqdP2otSXandfoeOKknF8T2MnBqSzW/uLV+tsLxMt0eZuek0/qVROTlNt73c1SWCwMO3i8TB6eAAAAAAAAAAAABuyAZaWj2UUspwCSS860nOW9vhfgtiX+TL3dzKtNvhwNpY2cbamlh/k8374LgSpFJpX2mmSwwGIVXCxtSm7NLZGXLgmv0fEv9HXTqR1JPevIy2lrJUpKpBf4vwf9NrQfJYVV9IxcbpO1NPZdbZ+Opdj5HLSV04/6ovt5HfQ9kpf75rs5+i/4duUpojn9MMppY3LZVIpKrTi5J73Fa3F8dV7c+8n2FxKnUUMdz3f0q9KWkatJzS/yise7gVwaMyQAAAAAAAAAAAAAABs/Tq/E5bKJ36RU+pqnU4gAAAAAAAAAAAAAw9a1ANbi4MtxlPMMDCrR2SV+x70+ad13GRrUnSm4PgbuhWjWpqpHibJzOprZjgqWY4KVKv7Mlbmnua5p6zpRqypTU48DlXoxrU3Tlkz64ejTw1CMKKtGKSS5I+ZScpOTzZ9whGEVGK3I+h8n0Rek2MhgckqSm9couEecpJpf57EyVZ0nUrRS7e4h39ZUreTfFYLtZVZqDFgAAAAAAAAAAAAAAAA83PT0XAFwBcAXAFwBcAXAFwBcAXAOr0Ezf6Pi3QrPqT1x5T4d6+aXEqtJ22tDarNZ9n8LrQ91qT2Msnl2/33md+UJpQAAAAVrplm/wBY5l0KT9VTulwcvtS+Vl2PiaTR9tsqes837Rk9KXW2q6sflju/fF+n/Tn7k8rBcAXAFwBcAXAFwBcAXAFwBcAXAMA9AAAAAAAAAAAAAAAMxlKEk4Npp3TW1Pig0nuYTaeKLW0czWOb5XGbt011ZrhJf2e1dplbu32FRx4cOw2dlcq4pKfHJ9vveShGJYAILTDN/qvLLUnarUvGPFLfLuXzaJ1hbbapi8ln6IrtJXWwpYR+Z7l6v3xwKx2GlMlgAAAAAAAAAAAAAAAAAAYPT0AAAAAAAAAAAAAAAJOTtFNvcltfJDce4PgWvo1lKyjK1CVvOPrTf8z3di2d3Myt5cbeo5cMkbCxtVb0lHjm+0lSKTDzOcacG6jSSV23sSW9nqTbwR42ksWVZm2LxWkWbznhoSkkn0YpbKcd77dva7cDUUKcLWkoyeHN+/UyFzUqXdZyim8Ml1L36EPclkIyAAAAAAAAAAAAAAAAADyenoAAAAAAAAAAAAAAB1WgWUfS8a69ddSm+rzn/wDK19rXAqtJ3GpDZxzfl/S30Ta69TayW5Zdv8LEM+aUAHH+UDOPMYZYei+tNXnyhw72vBPiW+i7bWltXksu3+FLpe61YbGL3vPs/vkSWh2VRy3KVKa9bUSlLiluj3J+LZG0hcOrVaWS3L1ZK0bbKjRTeb3v0X6ON0wyj6qzRukvVVLyjwT+1HubuuTXAuLC421LB5rdyZR6StdjVxXyvevVECTyvAAAAAAAAAAAAAAAABgHoAAAAAAAAAAAAAPtg8NVxuKjTw6vOTsv8vktr7D4qTjTi5yyR906cqk1CObLfyzA0stwEKVD2Yq197e+T5t3Zkq1WVWbnLibOhRjRpqEckbRyOpr5jjKWX4KdXEPqxV+3glzbsu86UqUqs1CObOdarGlBzlkip41amcZ7F4rW6tWKfY5JWXJLV3GqcVQoNR/8p+RkE3cV05f+pLz5FwGRNmRmkOVRzfK5U3bp+1B8JLZ3PY+TZJtLh0Kqlw49hFvLZXFJw48O0qScZU5uNRNSTaae1NammatNNYox7i08HmYPTwAAAAAAAAAAAAAAAwenuAAwAGAAwAGAAwAGAAwAGAAwO88nuT+bpPE11rleNPlHfLvat2LmUWlbnF7GPDPkX+iLXBbaXHcuz6/v3mdoUxdgAr3ygZx9Ixaw9B9SGufOe5dyfi+Rf6LttWO1lm8uz+md0tc68tjHJZ9v895HPZJUVLOqDexVYf+SLC5WNGa6n5FdbPVrQfWvMuMyBswAV95QMn8xiViaC6s9U+Urapd6Vu1cy/0Xc60dlLNZdnv3uM9pa11ZbaOTz7fr79TkC3KbAAYADAAYADAAYADAAYADAAYADA83B6LgC4AuALgC4AuALgC4BIZDlk83zSNKF7PXJ8Ira+3WkubRwua6oU3N/rtJFrbuvVUO/sLfo0oUaSjSSUYpJJbEkrJIyMpOTbeZsIxUUkskezw9IvSTNo5PlUqmrpvqwXGT2dy2vsJVpbuvVUeHHsIt5cKhScuPDtKinOU5tzbbbu29rb2tmsSSWCMi228WYu1sdmDwuTJMwjmmV06sdso61wktUl4pmQuaLo1XD6e0bK2rKtSjNcfbN44Hc18fg6WPwcqWIV4yVn/AJXNPX3HSlUlTmpxzRzq041YOEsmU7mGDq5fjZ0sR7UHbt4SXJqz7zXUqkasFOOTMdVpSpTcJZo17nQ5i4AuALgC4AuALgC4AuALgGD09AAAAAAAAAABi4BaOhGT/VmV9OurVatpPio/Zj87vm+RmdJXO1qascl7bNPo222NLWlnL2kdGVxYgAqnTHOfrbNX5l3o07xhwb+1Pva8EjU6PttjS35ve/RGW0hc7aruf+K3L1ZBE4gAA6rQHOfoWP8AMV36uq+rynsXxKy7VEq9KW20htI5ry/nMtdF3Ozns5ZS8/7yLJM4aMAHH+ULJ/pGEWJoLr01afOHH8Lfg3wLfRVzqy2Usnl2/wBKjSttrR2sc1n2fzmV4aAzwAAAAAAAAAAAAAPNz0+hcAXAFwBcAXAFwBcA6DQvJ/rbNU6y9TTtKXBv7Me9q75J8SBpC52NLBZvcvVk7R9ttquLyW/ki1TLGoABzWnWc/VuWeboO1WrdLio/al87LtvuLLRtttamtLKPnwK7SVzsqerHOXlxZV5pjMi4PRcAJtPU7P/AJsPAW5opnCznKVKb9bHqzXNb+xrX4rcZS9tthVaWT3o1dlc7ekm81uZMkMlnmcYzg1NJpqzT2NcGeptPFHjSawZUGkmUyybNZU9fQfWg+MXu7Vs7r7zW2lwq9JS48e0yd3buhVceHDs/hF3JRGFwBcAXAFwBcAXAFwBcAwD0AAA9U4TqVFGmm5NpJLa23ZJd542ksWEm3giw8n0EwdOgnmzc6j2xUnGC5XjZt879xn7jS1Rywpbl4l/Q0VTUcau99yJL0MyD3d/mVv3kf4ldff4Lkd/htr9vi+Y9DMg93f5lb94+JXX3+C5D4ba/b4vmPQzIPd3+ZW/ePiV19/guQ+G2v2+L5kplmW4PKsP0MBDoxbu1du74tybe5EWtXqVpa03iyVRoU6MdWCwRtnI6gAisx0dyrM8T5zHUnKdkr9OotS3JKSS2vxJVK9r0o6sJYLsXIi1rOhVlrTji+18zV9DMg93f5lb951+JXX3+C5HL4ba/b4vmPQzIPd3+ZW/ePiV19/guQ+G2v2+L5j0MyD3d/mVv3j4ldff4LkPhtr9vi+Z8cVoPktanajCdN8Yzk/lNtH1DStxF72n+l6YHzPRdu1uTX7fric3go4rQvSGKxjvQqanNaouN/atucW9a4N7bllUcL+3bh8y4en7K+mp2NdKfyvj6/ryLJTutRnDQgA0M1yfAZvGKzCn0uje2uUWr7dcWuC8DvQuatHHZvDH3xOFa2pVsNoscPfAjvQzIP4D/Mq/uJHxO6+7wXIj/DLX7fF8x6GZB/Af5lX9w+J3X3eC5D4Za/b4vmPQzIP4D/Mq/uHxO6+7wXIfDLX7fF8yKzvQTDSoOWTuUZr7En0oy5JvXF9rt2bSVb6WmpYVt6+pGuNFQ1caW5/Tgyv2nF2kmmtqe1cmX5RYGAAAAAAYPT0AAAmdDVB6UUPObOlLx83O3zsQtIY9Gnh1eaJdgl0mGPX5Mt4yZqQAAAAAAAAAAAAAAAAQOm+ChjNHKjkutTXnIvh0dvjHpLvJ2jqrhcR693f/AEhaQpqdCXVv7v4aXk/zn6dl3ma79ZSWrnDc+72fDidtKW2zqbSOUvP3v7zjoy42lPUlmvLhyOrKsswAAAAAAAU7pUqcdJK/mtnTfi0nL/c2a+yxdvDH6f8APAyl4krieH1/74kUSiMAAAADyAAAAe6NWpQrKdGVpRaafBp3TPJRUk4vJn1FuLTT3oszJtOMtxdBLMJeaq77p9B84y3Lk/ntM3caKrQl/rWsvH32GgoaSpTX+bwfh3kn6T5H73S+IjdBufxvuJHTbf8AIu8ek+R+90viHQbn8b7h023/ACLvHpPkfvdL4h0G5/G+4dNt/wAi7x6T5H73S+IdBufxvuHTbf8AIu8ek+R+90viHQbn8b7h023/ACLvHpPkfvdL4h0G5/G+4dNt/wAi7x6T5H73S+IdBufxvuHTbf8AIu8ek+R+90viHQbn8b7h023/ACLvHpPkfvdL4h0G5/G+4dNt/wAi7x6T5H73S+IdBufxvuHTbf8AIu8ek+R+90viHQbn8b7h023/ACLvIvSjSXK6mQ1Y4SvCc5x6CjF3fW1N9ybZJsrGuq8XOLSTx7iPd3lF0ZKMk21hu6yvsnzKrlOZQrUdsXrX3ovbHvXzs9xf3FCNam4PiUdCq6NRTXAufC4ili8NGph3eEkmnyZjpwlCTjLNGshNTipRyZ9T5PoAEZW0gyehVca2JpRlFtNOSTTW5okxs7iSxUHgR5XdCLwc1j2nj0lyT3uj8SPeg3P433HnTbf8i7yJzzTjL8Lh2sskqtV7LJ9Bc29/YvkS7bRVWcsaiwXiRrjSVKEcKbxfgVpUqTq1HKo25Nttva23dt95o1FJYIzzbbxZ5PTwAAAAGD0+gAAAAAAAdtolodh8wy9Vs06dpPqRT6KcfvS1X167Wey3Epb7SU6VTZ0sN2b6y2s9HxqQ16mO/JdRP1dBsinC0Kc4viqk2/8Ac2vkQI6VuU97T/S9CY9GWzW5NftnIaS6H4rJ6bqYaTqUFtdrTjzkltXNeCLez0lCu9SSwl4Ps5FZdaPnRWtHfHxRzJZEAAAAAAAAAAAAA7vyb51aTwmIe28qf6yh+sviKPS9t/8AaPY/R+ncXGi7jD/S+1eq9e878oS6ABX3lIyboVFisOtTtGp27Iz7/Z+Ev9EXOK2Mu1eq9e8pNKW2D2y7H6P07jhi7KgAAAAAAAAAwD0AAAAAAldGcolnWbRp6/NrrTfCK3X4vZ333EW8uFQpOXHJdpItbfbVFHhx7C5IQjTglBJJKyS2JcEZBtt4s1CWG5Ho8PSE0uziOTZPKUbecn1IJ69bW1rgld+C3k2wtnXqpcFvZEvLjY0m+L3Ip5alqNaZnAyAAAAAAAAAAAD3h69XDV4zoO04tNPg0fMoRnFxlkz2MnFqUc0XTkWaUs4yuFalquusvuyW2Pj8rMx1zQdCo4M1VvWVampo3zgdj44zC0sbhJU8QrwmnFrk/wBGfdOcqclKOaPmcIzi4yyZSub5fWyrMZ0a+2L1Pit0l2r+6NlQrRrU1OPEytak6U3B8DUOpyAAAAAAAB5PT0AAAAAAsjyW0qayytNe26vRfYoRa+cpGd01J7SMeGHr/EXeiktnJ8cfRcztSmLUN2WsAp3S/OnnWbuVN+ph1afZvl+J6+xRNdYWuwpJPN73y/XMzN5cbapisluXP98iEJpFAAAAAAAAAAAAAB1Pk/zv6uzTzVd+qqtLkp7Ivv8AZf4eBWaUtdrS145x8uPPvLDR1xs6mo8n58OXcWoZc0AAK78qlOnHF4eSXWcZp9icGvnOXiaDQsm4zXDFeOPJFJpZLWg+p+nM4YuyqAAAAAAABiScZWYR61gD0AAAAAn9D9IvqHGvz6bozspJbU1sklv2u63rsSIF/Z9IgsPmWXImWd1sJb8n7xLNw+fZRiKPSpYqj0ec4xa7U2mu8zUrSvF4OD7i9jcUZLFTXecppnphhqmDlQyifScladReyo71F/ab2XWqze8tdH6NmpqpVWGGS5lde30XF06bxx4lfF+U4AAAAAAAAAAAAAAAALO0W00weKwkaebVFTrRVulJ2jO32ulsUuKfcZq90ZUhJypLGL4LNF7a38JR1ajwfXkycxukWT4Kj0q+Jp9kZKUn2Rjdsg07O4qPBQfdgiXUuaMFi5IqrSbO6me5m6kk4wS6MI8I32v+Zt3fctdjUWdqrenqcc2Z+5ruvU1uHAiiWRwAAAAAD6/R633WfGvH6n1s5fQ++eYd4TOq0JfZqTt2dJtfJo5201OjCXUjpXhq1ZLrZo3O5yFwBcAXAFwBqAwFwBcAXAFwBcAXAFwBcAXAFwBcAXAFwBcAagMBcAXAFwBcAXAMxhKrJRpq8m7Jc3qSPG0t7GDe5Fw+jGF/4jJdOmaXo0TjvKblrw+bRrwXVqxs/wCuKtr7Y2+FlvoevrUnTecfJ/3zKzSVLVqKf181/PI40uCuAAAAAAAAAAAAAAAAAAAAAAAAAAAAAAAAAAAAAB0OgeWvMdIoOS6lL1ku1eyu3pWf4WV+k6+yt2uMt3PwJljS16y+i38i4DJGhI3SHKaedZVOjU1N64y+7JbH/Z8myTa3DoVVNfvsONxRVWDiyk8Vh62ExMqeJi4zi7ST3P8Auue82UJxnFSi9zM3KLi3GWaPmfR8gAAAAAAAAAAAAAAAAAAAAAAAAAAAAAAAAAARUpSSgm29SS1tvglvYeC3sFx6GZF9R5SlWS89PrVOT3Qvwivm3xMhpC76RVxXyrcuf7NFZ2+xp4PN5k+QSUADltM9FIZ3S85g7RxMVq3Ka+7Lg+D7uyz0fpB271J/K/Dr5kK7tFWWtH5vMqjEUauGruGIi4zi7OLVmnzNTGUZJSi8UyilFxeDW8+Z9HgAAAAAAAAAAAAAAAAAAAAAAAAAAAAAAAMxTlJKKbbdklrbfBLezxvDexgWZoPoe8A1iM1j677EPufzS/n/AE7dmc0jpHaf6qT/AMeL+v8APMubOz1P855/T6f07cpSyAAAABEZ/o7l2e0v+sjaaXVqR1TXK+9cndEu1vatu/8AB7vo8jhXtqdZf5Lf9eJXecaB5xgJN4RKvT4x1T74N/o2aChpa3qbpf4vry7+eBU1bCrD5d698DmK9KrhqnRxMZQlwknF+DLKMozWMXiureQ5Jx3SWHaeLnp4AAAAAAAAAAAAAAAAAAAAAAAALgGaalVqdGknKT3JXfckHgliwt7wR0WU6FZ1mLTnT8zD71TU+6HtX7bdpX19J21LJ6z6ueXmS6VlWnwwXXy/4WHo7onl2RdaC85W/iS2r+hbIr582UF3pCrcbnuj9F6/UtaFpTo71vf1J8gEoAAAAAAAAAjNIP8AtzJNr/8Aoc6vylNZv/q2a+h8pQVvmNE7HEAAAAAAAAAAAAAAAAAAAAAAGxgf9Sj4qfKfdP5i4NEv9D4GSvvnL+3+UniCdwAAAAAD/9k=;" vertex="1" parent="MZIq6xre1szuhVHO_qsm-55">
          <mxGeometry x="12.903225806451614" y="10" width="40" height="40" as="geometry" />
        </mxCell>
        <mxCell id="MZIq6xre1szuhVHO_qsm-66" value="" style="group" vertex="1" connectable="0" parent="MZIq6xre1szuhVHO_qsm-82">
          <mxGeometry x="323.23" y="110" width="126.77" height="60" as="geometry" />
        </mxCell>
        <mxCell id="MZIq6xre1szuhVHO_qsm-65" value="Python ETL" style="strokeColor=#dddddd;shadow=1;strokeWidth=1;rounded=1;absoluteArcSize=1;arcSize=8;align=center;spacingLeft=50;spacingRight=0;spacing=0;fontColor=#808080;fontSize=11;" vertex="1" parent="MZIq6xre1szuhVHO_qsm-66">
          <mxGeometry width="126.77" height="60" as="geometry" />
        </mxCell>
        <mxCell id="MZIq6xre1szuhVHO_qsm-64" value="" style="shape=image;verticalLabelPosition=bottom;labelBackgroundColor=default;verticalAlign=top;aspect=fixed;imageAspect=0;image=data:image/png,iVBORw0KGgoAAAANSUhEUgAAAOEAAADhCAMAAAAJbSJIAAAA9lBMVEX///80Z47yuzA0ZpDzujA0Z4w2Zo42ZZD8/P3+/vzwuzLzui7zvDIyZ5A3aY/y9fgrYoqIpr2SrMP6zGwwaJb75a/1vCH99OSNqMTzuyn3wjn2yWP0ujeCoLv++ev88tawxNP9xDT21IJrj67++/TZ4ejl6+/tviz989365rnM2eK6y9dKd5pchaRwk6+ctMf33Zn87Mj1xFH2z3L51o73zF38uDPzw0UnXIupus9RfaFTeKM+dJNtkakxaolvkK8nW5Blg6X44aTxwB40Y5keYob00W7nwSv20HwaZIPzv0RVgJvw0nb9ukP5wU/xuRHyzlT24ZoZk9SZAAAQ0klEQVR4nO2dCXfauBbHve82hoKp2CEsYd8DodNkmkzTvLzX6cz3/zJPsvEGTmIbJxY5/fecNoTE9Y8r6UpXV9cEkbwE62+oTHcwbEyz1cnFeDcaaXuNRrvxxaSanTaGg04mA3/O82vnICGT6XYHjdxkPGJ1JFpVdRKKI0nnH1VVafNNdTSeZK+HnW43cxaIQrdjsmn6ltd1jkXSOI4jNY10hV5wJKeR6JucyQpBs9fQomkDvKxMZzitQjidpjmOp+HNm4BkGLGkquvartoYYAspDK5NOg7SISFCkmVD4e0tS3K8zu6qQywZM43bL/kth4C4uIQkyfMcS+t/fG1g1yMzjbG2zfM8mwAhR97caBcDjIZWgRCGI9iFVNrqdntFIrNF86gVsCyn61VsAAmie7vlTAfA+hQP0flKHw0wYRQGoy1HHhPGAvRK166xGHGEBg07z6ENvVah6WcQXhPN53BAHH7hnyHco8G3YyJyPP85fcTBjn8zQvSbubT7YndCcy6hX0kQ8vw0XUDhemv5Psij2qJ51XxBW4pPCB0ryW2HqfrF7ogjLUDS5tNVTc0nRIiuTerd9PgEwjWhRUiru0luOv18u4NfJkCIpE9StKEwpkkf4XhqLQwyg9yIToiQ1BrpEXZ0zrEhZFEnHefjFuAgS/Mm36mE5EVa7VQgpmjh7hDqE5/z6oy3fCI2TNOIE10j3ZFmdNBfOqOECPVqan7fCkIgO0LXtx0cDusNneeTaKXkaJAOH5HR7VvgUBs98lvdWz6Rfkjq05SG045LyHH68Oh94TohG+qTVMYagRjq9hoCEmoBNzEYWUY8lZDcdd6fDxE2dDuKBmc244DRAHkMOv7qyRYcyVLpiMhZOIQcfRtA2PlGJ0O4TSUydUB4EUQ4VhMiTGmomdIk7czNdkGtdJSQDfVsOh4xx6sOIa0HDAYNLhlCnk/J5+doL2HuyB9msnpCNoSEqTRTnw3p0dHHPBiRydkwJULOBYR95cCImYmeTCul+XzKNkQ3AX0W3/C8J6BGzCZlQwwIkVcmR8hrCXs+4jPNfQxC5zZIktWqzoA6uEAtl0tk9YQJobnNpJOTRifTHVyPVRXaj0tmfZg+oRsH1kh9a4pWSfTexyOEsrqmFU38kIR7LNX8kt6vD7nAmPj5EpIfiZD2EZIfjxANlqRnrz6E54vjHdMkpH8TBhFGRsShH0YijAqInQ1fTlU4MxsGjjSvEkYFTJMwb7oFVSNV61ZU85UtNehuVZU/I8LPf27zUcTDqVw+RjNNj3BY/RxN2Ww293mkBhoXS8JYykzy50MoxFHmNh8R8Oxs+NEJhcyEjjoLf3NC+6xAMhfLTKJ2wzCEoijGvaGYv/e83obQVHRI66LdQWOay2bRUJ+IRmS43P1gwnYrSKtZYV6LASlkBrkxqW91fcvzKL6ku+Lhn3iKakE/Yc2QgaWmT8AwNq15JECIlx3tb0ijDyO7KNKkxdOJhHKFsST5RVEy+LXut0NDdhsXrG5OoM20e0uqq9Mj2acSUodSFAmAcr8dju96rEO+mxu0QkA5kCgkSNN4EyLJgGldhmigw9t8niYtQnMRxHGcEwZFeje4iIQAyDIoz1/BIzK5L9BikIK1jk+QB5QktoQIkGLkTf9lwO5X1szEMxPWPItZm/B96aIRUvDbDCM/zZ93GwLRYT0ne9D1bcj9S9r5Hi6Ee+8B9i/hW/LmhYY60F1C6/pnSKgY62eHm4G2v/EzIjwQegsYrWecxmCnfghCWZYKgT2x8y1vL8CPCNkzImSYCrMuBgBmqrzqDTG4Q827wQQqGqFJqShgdmxE4dq/a02etmOUnGIQMgpVOjZiJ8/TH4dQAa1DpyhcbD8UIQX8RhSI4Z88718lnS+hggRWfiMKI94mdK583oRyye8TzaMDqUw7X5WPEDAhCC1Mo+Az4TfemlpzHC6mcxSXEDx4CYd5nnOVNpNfMQkpsKl7CKu0Z7qGM6EhhyakenceX7hzLveBCMGjO5hew6U75wSePgohtXaaqfA5z+JMuHVy9YtG+H5IVTbOaNq5UM14DKaE9NYpPVCPQMhUwMwmHHxxCNPGCRK9vbYaqUjMo7TSirys2e7eTB/AmHB/ME4k+lEIGXmx74iZ3BY1THwJ6YFNOJNDt1L0Q6V9YLF7weNN+M3JH1+G9/gMI8vGneUvOqM9Ydooz8g9CNxe3N9Toec0BjD2HXHI7/th2ijPSG3YJpyX7nuhCaleD1hhRWGqY21DdeccsLzr/QhPKPV6SsmMDWequhVyShvlGbkn18Ql6AE5vA0luIJCHbE7xszFHyh/bZuwvkC7L6EJzYU+2jPtarhaz5TuHk+9UyITPqChZvAda0K3aETxE6BkORKhskHxqKl96hzl1qdLcyxNnzgroH6JUuQIcxozHgVnNUIWZ0JSc7x9bQmUyIQGnNUIX+3qlLgRorqg7qlGsa9QkQklFN3PjJz6m3jF2tibG23rFhcsrq0twggrYCiwFImujqmzgIT6rV2MAk667T1QKgqhshY9BTxwE/v9qws470mxCEttYqjHyFN6F7kWhHPuXkxCo0ZM3zl5JKQ0lfTWGVhfXZmJFo5CElLGnMipWPZDfdRw+dotEJuwT0RP+HxJp2ZMcRxaAXC6NvFUbGnP4EIIRETbt9LmHXGhJhhcM3PCVFKNJbOCdF67YXn+1lstuX1XQoRUdD64hGquiHHklNaXAfMqTcZDpFWO5f/Sv/9RHbpDjAgtWAK9HkXFJFwSu+QINVKl+WgHafzSv+e/TIZdj/1EQmz1AGWlkFLRCZVmmRglhaeRur7djsaTai6mpo1B9zBvvvYPsp+PELxC5VNzTWgJ9UJdG11MEyio7kMU7371oOLaEM5MqQWRSBvl1NGk0bFvMb78sO36w33vx2mEyoY4kY01a2LscmZt6iSPZkC+2ab348ePo1YajbB0qg1Zlt+OcknW3raCuO35bAGkntlG4a1S1pwt6kiDFlAnEsIFwJ+3/t4X/wCLo3a98LiBA4pvKhoRzkE8caRhb/7jKyx+Mp1YnBdWnxYSgDfn3uhJhNEPsXil/+Gth4fwxHph1lp+iqPlp/J6sSkpAJgZMckQSsSOi0/IqhcZ7+Eosd1fMihh1zAF5Ghi4O8BgHpeUoTwGiU4aztB1a4HsF1fldD+Hhz2rMRkpRJR6NNBY4uUnA2pJ2ISe43Pkllvxcv6rGSYQ59SUexPMJIYBjGahFJihPKCyMYkpEm96gGsFRaAkq3BvRIRzREkRNsNCBB9/AkQUmBt1TuOAUjz3iLNly1gj+1SZK/lBbG8u8QcvRHzos0HohHThvm8AygS87XMKK//d68KkZiASREqzUdiGI9QdUsjQ8BNT0kC0BOmOP5+rAtKzVncaOJ26o6ic2nfdfAjVECByKghnznllebueYlEXalgS4hibcIuxrRN1dzaz5cbCroyBVfCIiFEdYjoAA3tVoVtP8DhvVKh3rQfxohfWEIxbyGqQ2RZlvaUSb8zTuZ6O0lgLRKR3QUHCd1wdP3JnFKmjfKMJNAS0Ym8aIAcR46cXig+ApwJKQPlCXejRdvQgQW3Pnn/SY4RiX43mbvcRPciygoRhaZV5wk+7UcDb8JNDdUWiDbUqPm85owz859XaUO8KLBEx0qEhs7y4X2iSud39mxGvAO4Wo8yPQywkhMHLMuFR6T5bdVZMi1lp2oDdoJ9R7by2ojOLgohnHM37ClpfaNI+CKixaF15Lk70fkIhKTesQn7hkOIIWSvB/YnnoXcNkoiDavvfYXYnhkU3oR2eYVhPkIiDcv+4fiKZVPCmRDYmezE4Asdfm9aY//rDDTrJs42pIxH+whi9zYfvk6cpn91CBfNHsaEvZJzZkbI0VEILxzCjYExodT7xz2e19Dy4TuiS1jcNAHOhP9zN1E6uwj90EPYAzLOhJ7zh0SVDj351miXsFSpVPZ4GM6+N97z6g01PKHqElYqP7ElhItfDyCR2YXuh17Cn1cMhWULRYJLQ+9mZi70CspHKJupLmmzBEih5AXhUzcsoI+wFCm15T2lSEbhoDDGJGya6XkQUvLmsMxQ6OD+mRAad0cFv6ohEQ8JZTxjbZvj+jTo8cUxCGU8CY2AQlFCQw9VFP4sCEE5sE7UxHyE7wcghD6sH5jXM9jxIcpa4k8oA+OxFgQI26mWfz1NG39Chvm7HgiIzsuGWCbiTyg9BdejMxGz+qt1cH1rC0jIMDJms+5m66Xkutcj/AeEsc4IvKmaDy/wQU2DH0xxNoTKa4AEMRyrdB5FptTg8JTGH7ZSbAhRic/Si03UUif75a89YVCVf78NFUxsaKUKGmBdCFMMOjOsmubLB4ansCRkEKPxS1nVQ2bwWuXKaUR4XHOcx4+QqVRk8KvXqoer5m0xdoe5Cy2obPx2O/YRorTQSJR2fm2SAtK61S9G4DMlCJnuYNg4lrMDHIsQLAtJqz+/bKME86g55q8fMIhHeHdyKn+gYl715ZMt8Qhn8PNOWkl9TIcyPX5UQnkWtbukqFiEyIZp33hoxSVM+77DKyZh2rcdQbEIqUW5/PCwXpdflX2UBn29CPHYircijDqnAT00fwwl8xyNbD5Z5tdzq3YsCXuUWehfiqJzIjS3cuSoE1kjRUIUpHn7OE2KhO8UifpN+JvwN+Fvwt+EYXV4OPbDESpKqdlsBjJ+BEI4y5GNEpyQb+CE9IgxzTlNQtFERpGNcr9Ya7dr9VUJHNrxAxAqspOyDC/8CA7a6tkTMoy8qDnxMvjPnST1vLlW6REmFPNmrv4ueuKB8KsZZRY1+TCEMtP3BTxFQixjQphQK3Vzzh3E+T0ehLYNT6Qs9Y8uLv5zjwNhU1ESISwfBZpE4l8PoWKkFInaACoRQhCU/zJ3DxgrihGU4/T2qq1BMjYEq4Aw+KWb+AgJUwkji7VlQiMNWAUAXN675V+o0vvjIbVnjg1PJAxspR5Cufz+dNZNRI13PyM5aKS5u3cL14BZ3P3BE3W5sBFPI6SCnm/7YBdTgjLqKRG2VwkRHnVEEQ40LqC8SG2/qq8ks/aVlSMjfZLdRmrM3m6b9xUVl8nkssvGouhHnF2hJ1FaFbLkgIeKvpv6pUTOzMgy8D3fViyg5zzsASupbhu3H6lETgUx6GF+dmcTizNp3zaQLwQpbR7uVd8kdToPSKt5vdauXc4LZecx26a3fz4h9l3UBwkRUjIolZetx08L4J2vKb3nHrL9XhJXRnInLGXPU9L3iKAcnJX+jmo/GpJVYe0NjukpYJNqJ9wjtoBVDzDhk3oyIytAKqY0m/EjrhTmyqzpmBwh7IBXV1fIh2AAiOrCP8lW4dEkCZmrClxzYAEIh5v5+hc4GiVOI4Qe8q6NCyDU5QplySS3BwWH1eUcr/yw9rz8CySTDq0okmJsCql7iSPV+n/v55InMwKwquHTPj1qF54AStQyK3FH75MMJZtnUoGyqsVO+n1ToXvql39eXaFKub17ECLzyf4JVFdZQZWS741KGZ2ZwJEPCd3XfFXeUEDu9UCEjVNrGAbGZt3qx8hJf0+he6v1Z5+eeubIGrZLmjXANw//9i8JvPmQzPsrzguttQTMhvriLADOghSlCYzSulWYX4oE/nyu2pf1PqQ0zC6mUP4JnR3pRXB7OvycQwiJaD1797guGYbRhCo5HVNW4EsDwT3ezYu1M0puP5DZ6kSxDRvtrLUsL56eJNQwN5sFXOvOCvNi2zos8ZaA/wdWTYjv1iAuYQAAAABJRU5ErkJggg==;" vertex="1" parent="MZIq6xre1szuhVHO_qsm-66">
          <mxGeometry x="7.923125" y="7.5" width="27.6318984375" height="27.6318984375" as="geometry" />
        </mxCell>
        <mxCell id="MZIq6xre1szuhVHO_qsm-72" value="" style="group" connectable="0" vertex="1" parent="MZIq6xre1szuhVHO_qsm-82">
          <mxGeometry x="632.9032258064516" y="110" width="218.70967741935488" height="60" as="geometry" />
        </mxCell>
        <mxCell id="MZIq6xre1szuhVHO_qsm-73" value="User Stage&#xa;staged/&lt;file_name&gt;" style="strokeColor=#dddddd;shadow=1;strokeWidth=1;rounded=1;absoluteArcSize=1;arcSize=8;align=center;spacingLeft=50;spacingRight=0;spacing=0;fontColor=#808080;" vertex="1" parent="MZIq6xre1szuhVHO_qsm-72">
          <mxGeometry width="218.70967741935488" height="60" as="geometry" />
        </mxCell>
        <mxCell id="MZIq6xre1szuhVHO_qsm-74" value="" style="shape=image;verticalLabelPosition=bottom;labelBackgroundColor=default;verticalAlign=top;aspect=fixed;imageAspect=0;image=data:image/png,iVBORw0KGgoAAAANSUhEUgAAAOEAAADhCAMAAAAJbSJIAAAAYFBMVEX///8ptegAr+Yds+eAzu+s3fTj9PsUs+f0+/7Z8PoArub7/v/C5/ft+P0Asefo9vy14fVbwuyh2vOO0/F1yu4ut+jW7/qN0vFvyO6X1vJixOxEvOrG6PfN6/g7uumn3PSbQZwnAAAMfElEQVR4nO1d6XbqvA4lNkMoYOYyHeD93/KGAK0HyZY8pHzrZq/VX02CduxtO7IkDwY9evTo8V9FXc9Y188WdSFLSuB6uCkhxH63ol1fj857ocTkchqXNSwT5jchZdVASiU34evroZLvG8R6Wt7ARMzOqrX2BXULNcvcuF6KbSdmxmOx1+1tTb56b9gI8/pKrTsyNQ6zyiLYQHx7bhjZBJt38tEU1y7BRl34KDl1CTat+MEddQUZXMkdesMNeCNNq3/ukGqLMGTxSoHXy3OnVjMwB5uwsXiI3HCB30gllp3aTccRMbiS8PVLuAmb6wnT6J8A6aRoN0U6acPw2LHlRNRIJ21Gx3/gDSe0zfcdm07EGGUoR+ANQ4xhNenYdCJ6hg56hh+HnqGDnuHHoWfooGf4cegZOugZdo16sfBf0B3D2WLB86iHUd/PVdAr3RHD6+E2EUrtj0SPOgX1Tj2d0n6vdCcMdY+6OqVza7GyvNI7xDvYAcPxWhi27LNsAmxtw6WA3SjFGdZD4XjU5+kEN4AzRe2hB5dmeJ8A1wc2DQi4foEmQ3Isy3C+h/1Wk9R9R8x/BsixJENLgPqzE/1yI8zh1zxaWXIsx3A2VOillUgbbeCNhRdUZcixGMO7h5/Ho04CbvTz4WI9plycxPAfIkDkdTCx8r28J8fhjxyLMByvvQ34QFI33YaersuxAMOZMwMCUClzIrrXYvzCa3bMzxCcAd2n30szfMsxN8NrSIA5GBJ66YtjI8e8DJdhAb6Q1EtHxB95yPG+zMdQkgT4QtJIA0YSYFZ5/sVlWEkyv4ZhAsHBwGc3HXyGnIenLds2n88w8etiNslhREmGyQFGcIgM14qCDFVy3MaQNil5UZChyOCPOqa3YjmGXymz/Q9O9KmpY4YyabLXML0kcizDUIpjvsjpFWcG7oahFBdfWCcfSV21AENZZXR5P7E4xnPMzlCKXO5uA9/RcszMsBFgYJMoGqvIZWpehrkFaCJOjjkZSpldgCai5JiPocy23+RBhBxzMSwoQBNsOWZiWFaAJphyzMKwuABN8OSYgaHsPgujkWN3DDsToAn6YjWVoepQgCaockxj2LEATRDlmMLwz/P1SHJEPlTRbASdX3YBXjfb3fA0Z3xaEuSIeKXRjJLfV3NjCHC5Ou1225HXAz7eKSEfUOrM8EJuQ10VyQoK7L9WcsIQ4OqiVGu7qLZo++h7Beb2bgABOaLped49dNYMeN0r3XbYP2UnuOrbu0F45Yhmkd49cRDiTHeEOvtUAnITL1w5ScXw1eFy9KQTogtcdaOrBNqnkhf3OjBwRu3hnCwQJ2TDT+Cj4T+45Vkz4Ah8te5r3cHWZZCjN/TMCZprf/NAjx693pCebjvD8Y3CRo703wPkGHC7D924wDN9BlyioVJVNTHN9m3Yy0m8HOUkpKeNGU/JEuDBN4Sb2/t4cmQLrhxfv9vMq1gsqoZHyNr7BsUSoD9SQ970i+eB1YVUDDnWo/XkUflDXTa0/jY93MQD8sjYhkAF+ANjhAuvEFlybAQy/V5yrq/H31POAnR5Di/5jdxcZCQ1OXLkWBZ+Af4YrNtLiwxiybEgAgL8YahHh1LasGLOjhDG0wfS9qXDAnxbq7ch4UvtzZElRxMrqdoRRSSE2FME+IKhw9BYqnOMluP9Z0qS3oouHtAE+IJReyIwH1rvJk6Od/03VBRFogCfMOfDwZnjnJWK8WUDEoyK8yEL8GWlGYb+zQu4YC2OIYJ8igwBPqGs5RRtvtA4Iv4zBE45KCZFlgCfBO3hYsaOReCskU9QF2FQZAmwBRAMNubvmYk1UY4nWECCOGIxBdjatgdUNOZHlBDlCH3m0imyBVg9tgFAu2Y7/qMockQJBr7/n0axBejdKObsJ70RlKOHYJgi7ITx8/O7ySOCnwJ+Py/BAMUIARLc5JjHzMsRl+Mh1Cu+UIoxAiR56WKiLVD/e6AFH8BacRvxqhVxIfJ94XcOAXru3RaUrgxAijO+DSw3eYQcFeDZdgg2RhwAh6NLcYZWRsMNYKxAHgjuJ7m/4OQBugT3jw/of07ruD5VrBofCjlhrSIfWLB1bq/CXGfv/rkYnjpPtikiiyCcH/tLoMWVKQXrgwwlGKZYM3+YI0ATK96C19CThyBE8UunSHaqtOAK0MDswBmy9fycbzvLXScItqLWzTj8mJ9xLljTrpaRazeDSbChaHdETcWh3W/9sSmesTcYSyetxqWdueiU2r1aNLR4jXAEww+/aAGaIC9/1W87WAyluydv1RzWGFLTyWSKAE3M9kSGv997NkN3VXdAGRIHmozFeOfUBUbXbXjJU8GdkTHj06E9INjevTgd7tIjpmrOh79vLLX8CmP7qVoPZ42lqXHfm3zzoUFx7KwldPcmJ8o6LXmGLMAnjDXNzu5q8vZLcey8OKHP29Qk+edzRbQcuSlrVn1jD8Wpn+BgwfXARyWxsQT4tNLyDQIU0W8La+XF/7bgy5ElwBbu9yFA8TH02asZl2DM92HFS7acV3wfAhAs5+QQS3XcrilBRTU7w4olx5icUQXm/TufUJCf5gsaDGtvZCbCkTg78gX4aBtkyA46E/GwML4fhZgVxRegNxI16E7EXcKE8kKuKUE5YlXRfA/1x0ul+LyDJaIAa/xynHpC/TAEd/W9HTW0b0GrMmRxRIPpODVhfh5nF23jUSTsPcUYhRR2XPKdsMRQcHz/kDKHxcgRPFJpyd9IJgcsIq1ILVwZI8eb8xS+G50TVgO2IqMyp7/qHkjRaUViZNvvEwgC9FPEt9UAuKVLQ7BXgpyCUBUzF+NJ0fEeMgOr2HJU9DhvgF9EiKIVcBIRE8Wcq82YKF5cG3MZD1GMK+7E8ziw4rz1G3kC1O3TYhMjHZ0sORr1lRjxpYToewwjJZQSzV8Vn/SKF6N1GXLjvFt+iWdMfrdIewZZjlFx3pmKFiWCKEd2nHe8ALOjHn5xY/Up+RYsAS7GS5Y3etbcwHk+RY6sOG+eAFfnSZsCs77TjB6fLu0N+x1jFRCWo2LEebMcWffJWyaSFEDwiFCS7+s5Sg/IkRHnjX1ugbBerZShiWFk5q5xPGZ+jxI5zpslQFceodr+wLkEjN/zOSWIcd68dwquOL584oLOJUjpMxpB+yFwnDdLgJguFD6quu7v5x0sOYLNCMV5u/axdgPwsc2zG42fS5AoR32j65ei1YqsHR2vlw4tZew7lyBJjlictx5YmnFQw2v7+2sqsORYGTUV8Djvo3jWllBinW9iQmv7j0PrDI4cR7dnSQ8pJkPfcqqen3bH43bFWHIR1vrc03J/G4OzvTsebY/H4SZbjM0LJDd5Sn2ahO/RHCB+c6fVGPrLTxp4KsrL8C8/S+kbxYm1vhKiLVLAcJjkqNfWuRx5PugsNfe6leOGt42TpW5il3JkbxTnqX3ZmRw5AszKsCM5xkRq5KxBW3x2jIjUyMqwtBwjIjWyMywpxwgBlmBYTI5RAizDsMzsSF2CdsMwvxwjYhULM0zfB9MRL8CCDHPKMamDFmT4SKvMUtZp99HnzCQmrrVmfPZZQayoHBDzTz/vSaRmr+Uw4qPP7PovnLuWVs2cH5EJoezZeViVYhKcXFbfL+H2lj3/UKUw5Jxhecp4SqfkrIJLn5b7tOhREybvOaT0pI/yp+W+j8/KfZbsnJg3U/603HcGYP7zgGm1ckqflvubp1LgTGeSHMuelqsXZSpyLjdBjkkjTfBsdf3wkEJnqwflmHS2un/Gt1JwCzEMyTFtxvfX9rd2y4sx9MsxqZMO8LRqoCpaOYY+OSZXVkBq+0PHZ5VkiOeVe+KRiIDKVsJV0coyRE4m4qZtQAAKdsHhKqUZDhaOHGX6J/4DI2Mow8sSFmfoyDEc20nEUo9xxY/P6oDhYLDaa7Zs0+sLvbE8XeQjUeJ28AzNnTBsxr7hXigh5HmUe/NisVz4X1lHDBvUS16cfC50x/Cv0DN00DP8OPQMHfQMPw49Qwc9w49Dz9DB/zND5ODSvwaepsnNRrBq230O0Cqn3IySjJVJ8wLdx0E63RJl+DFZ4xawfGl2ZhfS5h8AzGDM9YF009TwioIYgWONBMvxtYC9vKl++pIACzraKccanDqu7fVYp/4E1EAMxZcvXQ446Qo6rPiD4JwMLQNud2fT4MMJNq1oxqLKKqSpleVRT9sN7ASr6n1crlSCcDy6XjVCXXJngJbBfLdvK3+cRzSv+2KzngihxG2YaRuiC9RLVjGWttxLvk2IHj169OgY/wMWU77dSlbeNAAAAABJRU5ErkJggg==;" vertex="1" parent="MZIq6xre1szuhVHO_qsm-72">
          <mxGeometry x="15.622119815668205" y="10" width="40" height="40" as="geometry" />
        </mxCell>
        <mxCell id="MZIq6xre1szuhVHO_qsm-75" value="" style="group" connectable="0" vertex="1" parent="MZIq6xre1szuhVHO_qsm-82">
          <mxGeometry x="889.9983969465649" y="110" width="234.93954198473284" height="60" as="geometry" />
        </mxCell>
        <mxCell id="MZIq6xre1szuhVHO_qsm-76" value="Table&#xa;demo.hiring_temp.sales_ms" style="strokeColor=#dddddd;shadow=1;strokeWidth=1;rounded=1;absoluteArcSize=1;arcSize=8;align=center;spacingLeft=50;spacingRight=0;spacing=0;fontColor=#808080;" vertex="1" parent="MZIq6xre1szuhVHO_qsm-75">
          <mxGeometry width="234.93954198473287" height="60" as="geometry" />
        </mxCell>
        <mxCell id="MZIq6xre1szuhVHO_qsm-77" value="" style="shape=image;verticalLabelPosition=bottom;labelBackgroundColor=default;verticalAlign=top;aspect=fixed;imageAspect=0;image=data:image/png,iVBORw0KGgoAAAANSUhEUgAAAOEAAADhCAMAAAAJbSJIAAAAYFBMVEX///8ptegAr+Yds+eAzu+s3fTj9PsUs+f0+/7Z8PoArub7/v/C5/ft+P0Asefo9vy14fVbwuyh2vOO0/F1yu4ut+jW7/qN0vFvyO6X1vJixOxEvOrG6PfN6/g7uumn3PSbQZwnAAAMfElEQVR4nO1d6XbqvA4lNkMoYOYyHeD93/KGAK0HyZY8pHzrZq/VX02CduxtO7IkDwY9evTo8V9FXc9Y188WdSFLSuB6uCkhxH63ol1fj857ocTkchqXNSwT5jchZdVASiU34evroZLvG8R6Wt7ARMzOqrX2BXULNcvcuF6KbSdmxmOx1+1tTb56b9gI8/pKrTsyNQ6zyiLYQHx7bhjZBJt38tEU1y7BRl34KDl1CTat+MEddQUZXMkdesMNeCNNq3/ukGqLMGTxSoHXy3OnVjMwB5uwsXiI3HCB30gllp3aTccRMbiS8PVLuAmb6wnT6J8A6aRoN0U6acPw2LHlRNRIJ21Gx3/gDSe0zfcdm07EGGUoR+ANQ4xhNenYdCJ6hg56hh+HnqGDnuHHoWfooGf4cegZOugZdo16sfBf0B3D2WLB86iHUd/PVdAr3RHD6+E2EUrtj0SPOgX1Tj2d0n6vdCcMdY+6OqVza7GyvNI7xDvYAcPxWhi27LNsAmxtw6WA3SjFGdZD4XjU5+kEN4AzRe2hB5dmeJ8A1wc2DQi4foEmQ3Isy3C+h/1Wk9R9R8x/BsixJENLgPqzE/1yI8zh1zxaWXIsx3A2VOillUgbbeCNhRdUZcixGMO7h5/Ho04CbvTz4WI9plycxPAfIkDkdTCx8r28J8fhjxyLMByvvQ34QFI33YaersuxAMOZMwMCUClzIrrXYvzCa3bMzxCcAd2n30szfMsxN8NrSIA5GBJ66YtjI8e8DJdhAb6Q1EtHxB95yPG+zMdQkgT4QtJIA0YSYFZ5/sVlWEkyv4ZhAsHBwGc3HXyGnIenLds2n88w8etiNslhREmGyQFGcIgM14qCDFVy3MaQNil5UZChyOCPOqa3YjmGXymz/Q9O9KmpY4YyabLXML0kcizDUIpjvsjpFWcG7oahFBdfWCcfSV21AENZZXR5P7E4xnPMzlCKXO5uA9/RcszMsBFgYJMoGqvIZWpehrkFaCJOjjkZSpldgCai5JiPocy23+RBhBxzMSwoQBNsOWZiWFaAJphyzMKwuABN8OSYgaHsPgujkWN3DDsToAn6YjWVoepQgCaockxj2LEATRDlmMLwz/P1SHJEPlTRbASdX3YBXjfb3fA0Z3xaEuSIeKXRjJLfV3NjCHC5Ou1225HXAz7eKSEfUOrM8EJuQ10VyQoK7L9WcsIQ4OqiVGu7qLZo++h7Beb2bgABOaLped49dNYMeN0r3XbYP2UnuOrbu0F45Yhmkd49cRDiTHeEOvtUAnITL1w5ScXw1eFy9KQTogtcdaOrBNqnkhf3OjBwRu3hnCwQJ2TDT+Cj4T+45Vkz4Ah8te5r3cHWZZCjN/TMCZprf/NAjx693pCebjvD8Y3CRo703wPkGHC7D924wDN9BlyioVJVNTHN9m3Yy0m8HOUkpKeNGU/JEuDBN4Sb2/t4cmQLrhxfv9vMq1gsqoZHyNr7BsUSoD9SQ970i+eB1YVUDDnWo/XkUflDXTa0/jY93MQD8sjYhkAF+ANjhAuvEFlybAQy/V5yrq/H31POAnR5Di/5jdxcZCQ1OXLkWBZ+Af4YrNtLiwxiybEgAgL8YahHh1LasGLOjhDG0wfS9qXDAnxbq7ch4UvtzZElRxMrqdoRRSSE2FME+IKhw9BYqnOMluP9Z0qS3oouHtAE+IJReyIwH1rvJk6Od/03VBRFogCfMOfDwZnjnJWK8WUDEoyK8yEL8GWlGYb+zQu4YC2OIYJ8igwBPqGs5RRtvtA4Iv4zBE45KCZFlgCfBO3hYsaOReCskU9QF2FQZAmwBRAMNubvmYk1UY4nWECCOGIxBdjatgdUNOZHlBDlCH3m0imyBVg9tgFAu2Y7/qMockQJBr7/n0axBejdKObsJ70RlKOHYJgi7ITx8/O7ySOCnwJ+Py/BAMUIARLc5JjHzMsRl+Mh1Cu+UIoxAiR56WKiLVD/e6AFH8BacRvxqhVxIfJ94XcOAXru3RaUrgxAijO+DSw3eYQcFeDZdgg2RhwAh6NLcYZWRsMNYKxAHgjuJ7m/4OQBugT3jw/of07ruD5VrBofCjlhrSIfWLB1bq/CXGfv/rkYnjpPtikiiyCcH/tLoMWVKQXrgwwlGKZYM3+YI0ATK96C19CThyBE8UunSHaqtOAK0MDswBmy9fycbzvLXScItqLWzTj8mJ9xLljTrpaRazeDSbChaHdETcWh3W/9sSmesTcYSyetxqWdueiU2r1aNLR4jXAEww+/aAGaIC9/1W87WAyluydv1RzWGFLTyWSKAE3M9kSGv997NkN3VXdAGRIHmozFeOfUBUbXbXjJU8GdkTHj06E9INjevTgd7tIjpmrOh79vLLX8CmP7qVoPZ42lqXHfm3zzoUFx7KwldPcmJ8o6LXmGLMAnjDXNzu5q8vZLcey8OKHP29Qk+edzRbQcuSlrVn1jD8Wpn+BgwfXARyWxsQT4tNLyDQIU0W8La+XF/7bgy5ElwBbu9yFA8TH02asZl2DM92HFS7acV3wfAhAs5+QQS3XcrilBRTU7w4olx5icUQXm/TufUJCf5gsaDGtvZCbCkTg78gX4aBtkyA46E/GwML4fhZgVxRegNxI16E7EXcKE8kKuKUE5YlXRfA/1x0ul+LyDJaIAa/xynHpC/TAEd/W9HTW0b0GrMmRxRIPpODVhfh5nF23jUSTsPcUYhRR2XPKdsMRQcHz/kDKHxcgRPFJpyd9IJgcsIq1ILVwZI8eb8xS+G50TVgO2IqMyp7/qHkjRaUViZNvvEwgC9FPEt9UAuKVLQ7BXgpyCUBUzF+NJ0fEeMgOr2HJU9DhvgF9EiKIVcBIRE8Wcq82YKF5cG3MZD1GMK+7E8ziw4rz1G3kC1O3TYhMjHZ0sORr1lRjxpYToewwjJZQSzV8Vn/SKF6N1GXLjvFt+iWdMfrdIewZZjlFx3pmKFiWCKEd2nHe8ALOjHn5xY/Up+RYsAS7GS5Y3etbcwHk+RY6sOG+eAFfnSZsCs77TjB6fLu0N+x1jFRCWo2LEebMcWffJWyaSFEDwiFCS7+s5Sg/IkRHnjX1ugbBerZShiWFk5q5xPGZ+jxI5zpslQFceodr+wLkEjN/zOSWIcd68dwquOL584oLOJUjpMxpB+yFwnDdLgJguFD6quu7v5x0sOYLNCMV5u/axdgPwsc2zG42fS5AoR32j65ei1YqsHR2vlw4tZew7lyBJjlictx5YmnFQw2v7+2sqsORYGTUV8Djvo3jWllBinW9iQmv7j0PrDI4cR7dnSQ8pJkPfcqqen3bH43bFWHIR1vrc03J/G4OzvTsebY/H4SZbjM0LJDd5Sn2ahO/RHCB+c6fVGPrLTxp4KsrL8C8/S+kbxYm1vhKiLVLAcJjkqNfWuRx5PugsNfe6leOGt42TpW5il3JkbxTnqX3ZmRw5AszKsCM5xkRq5KxBW3x2jIjUyMqwtBwjIjWyMywpxwgBlmBYTI5RAizDsMzsSF2CdsMwvxwjYhULM0zfB9MRL8CCDHPKMamDFmT4SKvMUtZp99HnzCQmrrVmfPZZQayoHBDzTz/vSaRmr+Uw4qPP7PovnLuWVs2cH5EJoezZeViVYhKcXFbfL+H2lj3/UKUw5Jxhecp4SqfkrIJLn5b7tOhREybvOaT0pI/yp+W+j8/KfZbsnJg3U/603HcGYP7zgGm1ckqflvubp1LgTGeSHMuelqsXZSpyLjdBjkkjTfBsdf3wkEJnqwflmHS2un/Gt1JwCzEMyTFtxvfX9rd2y4sx9MsxqZMO8LRqoCpaOYY+OSZXVkBq+0PHZ5VkiOeVe+KRiIDKVsJV0coyRE4m4qZtQAAKdsHhKqUZDhaOHGX6J/4DI2Mow8sSFmfoyDEc20nEUo9xxY/P6oDhYLDaa7Zs0+sLvbE8XeQjUeJ28AzNnTBsxr7hXigh5HmUe/NisVz4X1lHDBvUS16cfC50x/Cv0DN00DP8OPQMHfQMPw49Qwc9w49Dz9DB/zND5ODSvwaepsnNRrBq230O0Cqn3IySjJVJ8wLdx0E63RJl+DFZ4xawfGl2ZhfS5h8AzGDM9YF009TwioIYgWONBMvxtYC9vKl++pIACzraKccanDqu7fVYp/4E1EAMxZcvXQ446Qo6rPiD4JwMLQNud2fT4MMJNq1oxqLKKqSpleVRT9sN7ASr6n1crlSCcDy6XjVCXXJngJbBfLdvK3+cRzSv+2KzngihxG2YaRuiC9RLVjGWttxLvk2IHj169OgY/wMWU77dSlbeNAAAAABJRU5ErkJggg==;" vertex="1" parent="MZIq6xre1szuhVHO_qsm-75">
          <mxGeometry x="16.781395856052345" y="10" width="40" height="40" as="geometry" />
        </mxCell>
        <mxCell id="MZIq6xre1szuhVHO_qsm-85" value="" style="group" connectable="0" vertex="1" parent="MZIq6xre1szuhVHO_qsm-82">
          <mxGeometry x="316.62" y="290" width="140" height="60" as="geometry" />
        </mxCell>
        <mxCell id="MZIq6xre1szuhVHO_qsm-86" value="local storage" style="strokeColor=#dddddd;shadow=1;strokeWidth=1;rounded=1;absoluteArcSize=1;arcSize=8;align=center;spacingLeft=50;spacingRight=0;spacing=0;fontColor=#808080;" vertex="1" parent="MZIq6xre1szuhVHO_qsm-85">
          <mxGeometry width="140" height="60" as="geometry" />
        </mxCell>
        <mxCell id="MZIq6xre1szuhVHO_qsm-83" value="" style="shadow=0;dashed=0;html=1;strokeColor=none;fillColor=#4495D1;labelPosition=center;verticalLabelPosition=bottom;verticalAlign=top;align=center;outlineConnect=0;shape=mxgraph.veeam.local_disk;" vertex="1" parent="MZIq6xre1szuhVHO_qsm-85">
          <mxGeometry x="10" y="11.600000000000023" width="37.2" height="36.8" as="geometry" />
        </mxCell>
        <mxCell id="MZIq6xre1szuhVHO_qsm-89" value="" style="edgeStyle=orthogonalEdgeStyle;rounded=0;orthogonalLoop=1;jettySize=auto;html=1;strokeWidth=2;strokeColor=#6C8EBF;exitX=0.5;exitY=1;exitDx=0;exitDy=0;entryX=0.5;entryY=0;entryDx=0;entryDy=0;" edge="1" parent="MZIq6xre1szuhVHO_qsm-82" source="MZIq6xre1szuhVHO_qsm-65" target="MZIq6xre1szuhVHO_qsm-86">
          <mxGeometry relative="1" as="geometry">
            <mxPoint x="333" y="180" as="sourcePoint" />
            <mxPoint x="236.12903225806457" y="180" as="targetPoint" />
          </mxGeometry>
        </mxCell>
        <mxCell id="MZIq6xre1szuhVHO_qsm-90" value="&lt;font style=&quot;font-size: 21px; color: rgb(0, 102, 204);&quot;&gt;2&lt;/font&gt;" style="edgeLabel;html=1;align=center;verticalAlign=middle;resizable=0;points=[];" connectable="0" vertex="1" parent="MZIq6xre1szuhVHO_qsm-89">
          <mxGeometry x="-0.2691" y="-1" relative="1" as="geometry">
            <mxPoint as="offset" />
          </mxGeometry>
        </mxCell>
        <mxCell id="MZIq6xre1szuhVHO_qsm-91" value="" style="edgeStyle=orthogonalEdgeStyle;rounded=0;orthogonalLoop=1;jettySize=auto;html=1;strokeWidth=2;strokeColor=#6C8EBF;exitX=1;exitY=0.5;exitDx=0;exitDy=0;entryX=0;entryY=0.5;entryDx=0;entryDy=0;" edge="1" parent="MZIq6xre1szuhVHO_qsm-82" source="MZIq6xre1szuhVHO_qsm-65" target="MZIq6xre1szuhVHO_qsm-73">
          <mxGeometry relative="1" as="geometry">
            <mxPoint x="397" y="210" as="sourcePoint" />
            <mxPoint x="397" y="300" as="targetPoint" />
          </mxGeometry>
        </mxCell>
        <mxCell id="MZIq6xre1szuhVHO_qsm-92" value="&lt;font style=&quot;font-size: 21px; color: rgb(0, 102, 204);&quot;&gt;3&lt;/font&gt;" style="edgeLabel;html=1;align=center;verticalAlign=middle;resizable=0;points=[];" connectable="0" vertex="1" parent="MZIq6xre1szuhVHO_qsm-91">
          <mxGeometry x="-0.2691" y="-1" relative="1" as="geometry">
            <mxPoint as="offset" />
          </mxGeometry>
        </mxCell>
        <mxCell id="MZIq6xre1szuhVHO_qsm-93" value="" style="group" connectable="0" vertex="1" parent="MZIq6xre1szuhVHO_qsm-82">
          <mxGeometry x="1161.9383969465648" y="110" width="234.93954198473284" height="60" as="geometry" />
        </mxCell>
        <mxCell id="MZIq6xre1szuhVHO_qsm-94" value="Table&#xa;demo.hiring_prod.sales_ms" style="strokeColor=#dddddd;shadow=1;strokeWidth=1;rounded=1;absoluteArcSize=1;arcSize=8;align=center;spacingLeft=50;spacingRight=0;spacing=0;fontColor=#808080;" vertex="1" parent="MZIq6xre1szuhVHO_qsm-93">
          <mxGeometry width="234.93954198473287" height="60" as="geometry" />
        </mxCell>
        <mxCell id="MZIq6xre1szuhVHO_qsm-95" value="" style="shape=image;verticalLabelPosition=bottom;labelBackgroundColor=default;verticalAlign=top;aspect=fixed;imageAspect=0;image=data:image/png,iVBORw0KGgoAAAANSUhEUgAAAOEAAADhCAMAAAAJbSJIAAAAYFBMVEX///8ptegAr+Yds+eAzu+s3fTj9PsUs+f0+/7Z8PoArub7/v/C5/ft+P0Asefo9vy14fVbwuyh2vOO0/F1yu4ut+jW7/qN0vFvyO6X1vJixOxEvOrG6PfN6/g7uumn3PSbQZwnAAAMfElEQVR4nO1d6XbqvA4lNkMoYOYyHeD93/KGAK0HyZY8pHzrZq/VX02CduxtO7IkDwY9evTo8V9FXc9Y188WdSFLSuB6uCkhxH63ol1fj857ocTkchqXNSwT5jchZdVASiU34evroZLvG8R6Wt7ARMzOqrX2BXULNcvcuF6KbSdmxmOx1+1tTb56b9gI8/pKrTsyNQ6zyiLYQHx7bhjZBJt38tEU1y7BRl34KDl1CTat+MEddQUZXMkdesMNeCNNq3/ukGqLMGTxSoHXy3OnVjMwB5uwsXiI3HCB30gllp3aTccRMbiS8PVLuAmb6wnT6J8A6aRoN0U6acPw2LHlRNRIJ21Gx3/gDSe0zfcdm07EGGUoR+ANQ4xhNenYdCJ6hg56hh+HnqGDnuHHoWfooGf4cegZOugZdo16sfBf0B3D2WLB86iHUd/PVdAr3RHD6+E2EUrtj0SPOgX1Tj2d0n6vdCcMdY+6OqVza7GyvNI7xDvYAcPxWhi27LNsAmxtw6WA3SjFGdZD4XjU5+kEN4AzRe2hB5dmeJ8A1wc2DQi4foEmQ3Isy3C+h/1Wk9R9R8x/BsixJENLgPqzE/1yI8zh1zxaWXIsx3A2VOillUgbbeCNhRdUZcixGMO7h5/Ho04CbvTz4WI9plycxPAfIkDkdTCx8r28J8fhjxyLMByvvQ34QFI33YaersuxAMOZMwMCUClzIrrXYvzCa3bMzxCcAd2n30szfMsxN8NrSIA5GBJ66YtjI8e8DJdhAb6Q1EtHxB95yPG+zMdQkgT4QtJIA0YSYFZ5/sVlWEkyv4ZhAsHBwGc3HXyGnIenLds2n88w8etiNslhREmGyQFGcIgM14qCDFVy3MaQNil5UZChyOCPOqa3YjmGXymz/Q9O9KmpY4YyabLXML0kcizDUIpjvsjpFWcG7oahFBdfWCcfSV21AENZZXR5P7E4xnPMzlCKXO5uA9/RcszMsBFgYJMoGqvIZWpehrkFaCJOjjkZSpldgCai5JiPocy23+RBhBxzMSwoQBNsOWZiWFaAJphyzMKwuABN8OSYgaHsPgujkWN3DDsToAn6YjWVoepQgCaockxj2LEATRDlmMLwz/P1SHJEPlTRbASdX3YBXjfb3fA0Z3xaEuSIeKXRjJLfV3NjCHC5Ou1225HXAz7eKSEfUOrM8EJuQ10VyQoK7L9WcsIQ4OqiVGu7qLZo++h7Beb2bgABOaLped49dNYMeN0r3XbYP2UnuOrbu0F45Yhmkd49cRDiTHeEOvtUAnITL1w5ScXw1eFy9KQTogtcdaOrBNqnkhf3OjBwRu3hnCwQJ2TDT+Cj4T+45Vkz4Ah8te5r3cHWZZCjN/TMCZprf/NAjx693pCebjvD8Y3CRo703wPkGHC7D924wDN9BlyioVJVNTHN9m3Yy0m8HOUkpKeNGU/JEuDBN4Sb2/t4cmQLrhxfv9vMq1gsqoZHyNr7BsUSoD9SQ970i+eB1YVUDDnWo/XkUflDXTa0/jY93MQD8sjYhkAF+ANjhAuvEFlybAQy/V5yrq/H31POAnR5Di/5jdxcZCQ1OXLkWBZ+Af4YrNtLiwxiybEgAgL8YahHh1LasGLOjhDG0wfS9qXDAnxbq7ch4UvtzZElRxMrqdoRRSSE2FME+IKhw9BYqnOMluP9Z0qS3oouHtAE+IJReyIwH1rvJk6Od/03VBRFogCfMOfDwZnjnJWK8WUDEoyK8yEL8GWlGYb+zQu4YC2OIYJ8igwBPqGs5RRtvtA4Iv4zBE45KCZFlgCfBO3hYsaOReCskU9QF2FQZAmwBRAMNubvmYk1UY4nWECCOGIxBdjatgdUNOZHlBDlCH3m0imyBVg9tgFAu2Y7/qMockQJBr7/n0axBejdKObsJ70RlKOHYJgi7ITx8/O7ySOCnwJ+Py/BAMUIARLc5JjHzMsRl+Mh1Cu+UIoxAiR56WKiLVD/e6AFH8BacRvxqhVxIfJ94XcOAXru3RaUrgxAijO+DSw3eYQcFeDZdgg2RhwAh6NLcYZWRsMNYKxAHgjuJ7m/4OQBugT3jw/of07ruD5VrBofCjlhrSIfWLB1bq/CXGfv/rkYnjpPtikiiyCcH/tLoMWVKQXrgwwlGKZYM3+YI0ATK96C19CThyBE8UunSHaqtOAK0MDswBmy9fycbzvLXScItqLWzTj8mJ9xLljTrpaRazeDSbChaHdETcWh3W/9sSmesTcYSyetxqWdueiU2r1aNLR4jXAEww+/aAGaIC9/1W87WAyluydv1RzWGFLTyWSKAE3M9kSGv997NkN3VXdAGRIHmozFeOfUBUbXbXjJU8GdkTHj06E9INjevTgd7tIjpmrOh79vLLX8CmP7qVoPZ42lqXHfm3zzoUFx7KwldPcmJ8o6LXmGLMAnjDXNzu5q8vZLcey8OKHP29Qk+edzRbQcuSlrVn1jD8Wpn+BgwfXARyWxsQT4tNLyDQIU0W8La+XF/7bgy5ElwBbu9yFA8TH02asZl2DM92HFS7acV3wfAhAs5+QQS3XcrilBRTU7w4olx5icUQXm/TufUJCf5gsaDGtvZCbCkTg78gX4aBtkyA46E/GwML4fhZgVxRegNxI16E7EXcKE8kKuKUE5YlXRfA/1x0ul+LyDJaIAa/xynHpC/TAEd/W9HTW0b0GrMmRxRIPpODVhfh5nF23jUSTsPcUYhRR2XPKdsMRQcHz/kDKHxcgRPFJpyd9IJgcsIq1ILVwZI8eb8xS+G50TVgO2IqMyp7/qHkjRaUViZNvvEwgC9FPEt9UAuKVLQ7BXgpyCUBUzF+NJ0fEeMgOr2HJU9DhvgF9EiKIVcBIRE8Wcq82YKF5cG3MZD1GMK+7E8ziw4rz1G3kC1O3TYhMjHZ0sORr1lRjxpYToewwjJZQSzV8Vn/SKF6N1GXLjvFt+iWdMfrdIewZZjlFx3pmKFiWCKEd2nHe8ALOjHn5xY/Up+RYsAS7GS5Y3etbcwHk+RY6sOG+eAFfnSZsCs77TjB6fLu0N+x1jFRCWo2LEebMcWffJWyaSFEDwiFCS7+s5Sg/IkRHnjX1ugbBerZShiWFk5q5xPGZ+jxI5zpslQFceodr+wLkEjN/zOSWIcd68dwquOL584oLOJUjpMxpB+yFwnDdLgJguFD6quu7v5x0sOYLNCMV5u/axdgPwsc2zG42fS5AoR32j65ei1YqsHR2vlw4tZew7lyBJjlictx5YmnFQw2v7+2sqsORYGTUV8Djvo3jWllBinW9iQmv7j0PrDI4cR7dnSQ8pJkPfcqqen3bH43bFWHIR1vrc03J/G4OzvTsebY/H4SZbjM0LJDd5Sn2ahO/RHCB+c6fVGPrLTxp4KsrL8C8/S+kbxYm1vhKiLVLAcJjkqNfWuRx5PugsNfe6leOGt42TpW5il3JkbxTnqX3ZmRw5AszKsCM5xkRq5KxBW3x2jIjUyMqwtBwjIjWyMywpxwgBlmBYTI5RAizDsMzsSF2CdsMwvxwjYhULM0zfB9MRL8CCDHPKMamDFmT4SKvMUtZp99HnzCQmrrVmfPZZQayoHBDzTz/vSaRmr+Uw4qPP7PovnLuWVs2cH5EJoezZeViVYhKcXFbfL+H2lj3/UKUw5Jxhecp4SqfkrIJLn5b7tOhREybvOaT0pI/yp+W+j8/KfZbsnJg3U/603HcGYP7zgGm1ckqflvubp1LgTGeSHMuelqsXZSpyLjdBjkkjTfBsdf3wkEJnqwflmHS2un/Gt1JwCzEMyTFtxvfX9rd2y4sx9MsxqZMO8LRqoCpaOYY+OSZXVkBq+0PHZ5VkiOeVe+KRiIDKVsJV0coyRE4m4qZtQAAKdsHhKqUZDhaOHGX6J/4DI2Mow8sSFmfoyDEc20nEUo9xxY/P6oDhYLDaa7Zs0+sLvbE8XeQjUeJ28AzNnTBsxr7hXigh5HmUe/NisVz4X1lHDBvUS16cfC50x/Cv0DN00DP8OPQMHfQMPw49Qwc9w49Dz9DB/zND5ODSvwaepsnNRrBq230O0Cqn3IySjJVJ8wLdx0E63RJl+DFZ4xawfGl2ZhfS5h8AzGDM9YF009TwioIYgWONBMvxtYC9vKl++pIACzraKccanDqu7fVYp/4E1EAMxZcvXQ446Qo6rPiD4JwMLQNud2fT4MMJNq1oxqLKKqSpleVRT9sN7ASr6n1crlSCcDy6XjVCXXJngJbBfLdvK3+cRzSv+2KzngihxG2YaRuiC9RLVjGWttxLvk2IHj169OgY/wMWU77dSlbeNAAAAABJRU5ErkJggg==;" vertex="1" parent="MZIq6xre1szuhVHO_qsm-93">
          <mxGeometry x="16.781395856052345" y="10" width="40" height="40" as="geometry" />
        </mxCell>
        <mxCell id="MZIq6xre1szuhVHO_qsm-96" value="" style="edgeStyle=orthogonalEdgeStyle;rounded=0;orthogonalLoop=1;jettySize=auto;html=1;strokeWidth=2;strokeColor=#6C8EBF;entryX=0.5;entryY=1;entryDx=0;entryDy=0;exitX=1;exitY=1;exitDx=0;exitDy=0;" edge="1" parent="MZIq6xre1szuhVHO_qsm-82" source="MZIq6xre1szuhVHO_qsm-65" target="MZIq6xre1szuhVHO_qsm-76">
          <mxGeometry relative="1" as="geometry">
            <mxPoint x="460" y="150" as="sourcePoint" />
            <mxPoint x="643" y="150" as="targetPoint" />
            <Array as="points">
              <mxPoint x="450" y="200" />
              <mxPoint x="1007" y="200" />
            </Array>
          </mxGeometry>
        </mxCell>
        <mxCell id="MZIq6xre1szuhVHO_qsm-97" value="&lt;font style=&quot;font-size: 21px; color: rgb(0, 102, 204);&quot;&gt;4&lt;/font&gt;" style="edgeLabel;html=1;align=center;verticalAlign=middle;resizable=0;points=[];" connectable="0" vertex="1" parent="MZIq6xre1szuhVHO_qsm-96">
          <mxGeometry x="-0.2691" y="-1" relative="1" as="geometry">
            <mxPoint as="offset" />
          </mxGeometry>
        </mxCell>
        <mxCell id="MZIq6xre1szuhVHO_qsm-98" value="" style="edgeStyle=orthogonalEdgeStyle;rounded=0;orthogonalLoop=1;jettySize=auto;html=1;strokeWidth=2;strokeColor=#6C8EBF;entryX=0.5;entryY=1;entryDx=0;entryDy=0;exitX=0.75;exitY=1;exitDx=0;exitDy=0;" edge="1" parent="MZIq6xre1szuhVHO_qsm-82" source="MZIq6xre1szuhVHO_qsm-65" target="MZIq6xre1szuhVHO_qsm-94">
          <mxGeometry relative="1" as="geometry">
            <mxPoint x="418.3074999999999" y="204.97999999999988" as="sourcePoint" />
            <mxPoint x="1279.4081679389315" y="204.97999999999988" as="targetPoint" />
            <Array as="points">
              <mxPoint x="418" y="240" />
              <mxPoint x="1280" y="240" />
              <mxPoint x="1280" y="205" />
              <mxPoint x="1279" y="205" />
            </Array>
          </mxGeometry>
        </mxCell>
        <mxCell id="MZIq6xre1szuhVHO_qsm-99" value="&lt;font style=&quot;font-size: 21px; color: rgb(0, 102, 204);&quot;&gt;5&lt;/font&gt;" style="edgeLabel;html=1;align=center;verticalAlign=middle;resizable=0;points=[];" connectable="0" vertex="1" parent="MZIq6xre1szuhVHO_qsm-98">
          <mxGeometry x="-0.2691" y="-1" relative="1" as="geometry">
            <mxPoint as="offset" />
          </mxGeometry>
        </mxCell>
        <mxCell id="MZIq6xre1szuhVHO_qsm-40" value="" style="edgeStyle=orthogonalEdgeStyle;rounded=0;orthogonalLoop=1;jettySize=auto;html=1;strokeWidth=2;strokeColor=#6C8EBF;exitX=1;exitY=0.5;exitDx=0;exitDy=0;entryX=0;entryY=0.5;entryDx=0;entryDy=0;" edge="1" parent="MZIq6xre1szuhVHO_qsm-82" source="MZIq6xre1szuhVHO_qsm-56" target="MZIq6xre1szuhVHO_qsm-65">
          <mxGeometry relative="1" as="geometry">
            <mxPoint x="226.12903225806457" y="170" as="sourcePoint" />
            <mxPoint x="335.48387096774206" y="170" as="targetPoint" />
          </mxGeometry>
        </mxCell>
        <mxCell id="MZIq6xre1szuhVHO_qsm-41" value="&lt;font style=&quot;font-size: 21px; color: rgb(0, 102, 204);&quot;&gt;1&lt;/font&gt;" style="edgeLabel;html=1;align=center;verticalAlign=middle;resizable=0;points=[];" connectable="0" vertex="1" parent="MZIq6xre1szuhVHO_qsm-40">
          <mxGeometry x="-0.2691" y="-1" relative="1" as="geometry">
            <mxPoint as="offset" />
          </mxGeometry>
        </mxCell>
        <mxCell id="MZIq6xre1szuhVHO_qsm-100" value="&lt;h1 style=&quot;margin-top: 0px;&quot;&gt;Sales report to Snowflake&lt;/h1&gt;&lt;p&gt;&lt;font style=&quot;font-size: 18px;&quot;&gt;1- Download a daily sales summary report from the App Store: Sales Report API&lt;/font&gt;&lt;/p&gt;&lt;p&gt;&lt;font style=&quot;font-size: 18px;&quot;&gt;2 - Storage and extract the gzip file to CSV&lt;/font&gt;&lt;/p&gt;&lt;p&gt;&lt;font style=&quot;font-size: 18px;&quot;&gt;3 - Upload( PUT ) the CSV into the Snowflake user stage area&lt;/font&gt;&lt;/p&gt;&lt;p&gt;&lt;font style=&quot;font-size: 18px;&quot;&gt;4 - COPY the CSV from the stage area into the temp table&lt;/font&gt;&lt;/p&gt;&lt;p&gt;&lt;font style=&quot;font-size: 18px;&quot;&gt;5 - Transform and merge the temp data into the production table&lt;/font&gt;&lt;/p&gt;" style="text;html=1;whiteSpace=wrap;overflow=hidden;rounded=0;" vertex="1" parent="1">
          <mxGeometry y="525" width="450" height="325" as="geometry" />
        </mxCell>
      </root>
    </mxGraphModel>
  </diagram>
</mxfile>
